<mxfile host="app.diagrams.net" modified="2024-05-21T09:22:32.865Z" agent="Mozilla/5.0 (X11; Linux x86_64) AppleWebKit/537.36 (KHTML, like Gecko) Chrome/122.0.0.0 Safari/537.36" etag="OlSnHuMNbEig1FVGtJTJ" version="24.4.4" type="github">
  <diagram name="Page-1" id="5bSXYN2U-99hKogTW9Im">
    <mxGraphModel dx="1660" dy="2273" grid="1" gridSize="10" guides="1" tooltips="1" connect="1" arrows="1" fold="1" page="1" pageScale="1" pageWidth="850" pageHeight="1100" math="0" shadow="0">
      <root>
        <mxCell id="0" />
        <mxCell id="1" parent="0" />
        <mxCell id="Y1CMa8lW1xbxOv6bXZh0-143" value="" style="rounded=1;whiteSpace=wrap;html=1;arcSize=8;fillColor=none;dashed=1;" parent="1" vertex="1">
          <mxGeometry x="10" y="630" width="1030" height="826" as="geometry" />
        </mxCell>
        <mxCell id="Y1CMa8lW1xbxOv6bXZh0-142" value="" style="rounded=1;whiteSpace=wrap;html=1;arcSize=8;fillColor=none;dashed=1;" parent="1" vertex="1">
          <mxGeometry x="10" y="-70" width="1160" height="670" as="geometry" />
        </mxCell>
        <mxCell id="Y1CMa8lW1xbxOv6bXZh0-1" value="" style="rounded=1;whiteSpace=wrap;html=1;" parent="1" vertex="1">
          <mxGeometry x="26" y="40" width="120" height="160" as="geometry" />
        </mxCell>
        <mxCell id="Y1CMa8lW1xbxOv6bXZh0-2" value="130" style="rounded=1;whiteSpace=wrap;html=1;" parent="1" vertex="1">
          <mxGeometry x="56" y="100" width="60" height="30" as="geometry" />
        </mxCell>
        <mxCell id="Y1CMa8lW1xbxOv6bXZh0-3" value="Simple movement" style="rounded=1;whiteSpace=wrap;html=1;" parent="1" vertex="1">
          <mxGeometry x="46" y="50" width="80" height="30" as="geometry" />
        </mxCell>
        <mxCell id="Y1CMa8lW1xbxOv6bXZh0-4" value="132" style="rounded=1;whiteSpace=wrap;html=1;" parent="1" vertex="1">
          <mxGeometry x="56" y="150" width="60" height="30" as="geometry" />
        </mxCell>
        <mxCell id="Y1CMa8lW1xbxOv6bXZh0-5" value="" style="rounded=1;whiteSpace=wrap;html=1;" parent="1" vertex="1">
          <mxGeometry x="168.5" y="40" width="120" height="200" as="geometry" />
        </mxCell>
        <mxCell id="Y1CMa8lW1xbxOv6bXZh0-6" value="120" style="rounded=1;whiteSpace=wrap;html=1;" parent="1" vertex="1">
          <mxGeometry x="198.5" y="100" width="60" height="30" as="geometry" />
        </mxCell>
        <mxCell id="Y1CMa8lW1xbxOv6bXZh0-7" value="Intermediate goal movement_1" style="rounded=1;whiteSpace=wrap;html=1;" parent="1" vertex="1">
          <mxGeometry x="176" y="50" width="105" height="30" as="geometry" />
        </mxCell>
        <mxCell id="Y1CMa8lW1xbxOv6bXZh0-8" value="122" style="rounded=1;whiteSpace=wrap;html=1;" parent="1" vertex="1">
          <mxGeometry x="198.5" y="150" width="60" height="30" as="geometry" />
        </mxCell>
        <mxCell id="Y1CMa8lW1xbxOv6bXZh0-9" value="checkout sync_id 2" style="rounded=1;whiteSpace=wrap;html=1;" parent="1" vertex="1">
          <mxGeometry x="193.5" y="200" width="70" height="30" as="geometry" />
        </mxCell>
        <mxCell id="Y1CMa8lW1xbxOv6bXZh0-19" value="" style="rounded=1;whiteSpace=wrap;html=1;" parent="1" vertex="1">
          <mxGeometry x="308.5" y="40" width="120" height="200" as="geometry" />
        </mxCell>
        <mxCell id="Y1CMa8lW1xbxOv6bXZh0-20" value="120" style="rounded=1;whiteSpace=wrap;html=1;" parent="1" vertex="1">
          <mxGeometry x="338.5" y="100" width="60" height="30" as="geometry" />
        </mxCell>
        <mxCell id="Y1CMa8lW1xbxOv6bXZh0-21" value="Intermediate goal movement_2" style="rounded=1;whiteSpace=wrap;html=1;" parent="1" vertex="1">
          <mxGeometry x="316" y="50" width="105" height="30" as="geometry" />
        </mxCell>
        <mxCell id="Y1CMa8lW1xbxOv6bXZh0-22" value="123" style="rounded=1;whiteSpace=wrap;html=1;" parent="1" vertex="1">
          <mxGeometry x="338.5" y="150" width="60" height="30" as="geometry" />
        </mxCell>
        <mxCell id="Y1CMa8lW1xbxOv6bXZh0-23" value="checkout sync_id 2" style="rounded=1;whiteSpace=wrap;html=1;" parent="1" vertex="1">
          <mxGeometry x="333.5" y="200" width="70" height="30" as="geometry" />
        </mxCell>
        <mxCell id="Y1CMa8lW1xbxOv6bXZh0-24" value="" style="rounded=1;whiteSpace=wrap;html=1;" parent="1" vertex="1">
          <mxGeometry x="456" y="40" width="120" height="410" as="geometry" />
        </mxCell>
        <mxCell id="Y1CMa8lW1xbxOv6bXZh0-25" value="133" style="rounded=1;whiteSpace=wrap;html=1;" parent="1" vertex="1">
          <mxGeometry x="486" y="100" width="60" height="30" as="geometry" />
        </mxCell>
        <mxCell id="Y1CMa8lW1xbxOv6bXZh0-26" value="middle line movement" style="rounded=1;whiteSpace=wrap;html=1;" parent="1" vertex="1">
          <mxGeometry x="463.5" y="50" width="105" height="30" as="geometry" />
        </mxCell>
        <mxCell id="Y1CMa8lW1xbxOv6bXZh0-27" value="114" style="rounded=1;whiteSpace=wrap;html=1;" parent="1" vertex="1">
          <mxGeometry x="486" y="200" width="60" height="30" as="geometry" />
        </mxCell>
        <mxCell id="Y1CMa8lW1xbxOv6bXZh0-28" value="check pgv occupancy" style="rounded=1;whiteSpace=wrap;html=1;" parent="1" vertex="1">
          <mxGeometry x="481" y="150" width="70" height="30" as="geometry" />
        </mxCell>
        <mxCell id="Y1CMa8lW1xbxOv6bXZh0-29" value="act high sides" style="rounded=1;whiteSpace=wrap;html=1;" parent="1" vertex="1">
          <mxGeometry x="481" y="250" width="70" height="30" as="geometry" />
        </mxCell>
        <mxCell id="Y1CMa8lW1xbxOv6bXZh0-30" value="130" style="rounded=1;whiteSpace=wrap;html=1;" parent="1" vertex="1">
          <mxGeometry x="486" y="350" width="60" height="30" as="geometry" />
        </mxCell>
        <mxCell id="Y1CMa8lW1xbxOv6bXZh0-31" value="enter middle line north" style="rounded=1;whiteSpace=wrap;html=1;" parent="1" vertex="1">
          <mxGeometry x="481" y="300" width="70" height="30" as="geometry" />
        </mxCell>
        <mxCell id="Y1CMa8lW1xbxOv6bXZh0-32" value="act lower" style="rounded=1;whiteSpace=wrap;html=1;" parent="1" vertex="1">
          <mxGeometry x="486" y="400" width="60" height="30" as="geometry" />
        </mxCell>
        <mxCell id="Y1CMa8lW1xbxOv6bXZh0-33" value="" style="rounded=1;whiteSpace=wrap;html=1;" parent="1" vertex="1">
          <mxGeometry x="596" y="40" width="120" height="460" as="geometry" />
        </mxCell>
        <mxCell id="Y1CMa8lW1xbxOv6bXZh0-34" value="131" style="rounded=1;whiteSpace=wrap;html=1;" parent="1" vertex="1">
          <mxGeometry x="626" y="100" width="60" height="30" as="geometry" />
        </mxCell>
        <mxCell id="Y1CMa8lW1xbxOv6bXZh0-35" value="enter elevator" style="rounded=1;whiteSpace=wrap;html=1;" parent="1" vertex="1">
          <mxGeometry x="603.5" y="50" width="105" height="30" as="geometry" />
        </mxCell>
        <mxCell id="Y1CMa8lW1xbxOv6bXZh0-36" value="142" style="rounded=1;whiteSpace=wrap;html=1;" parent="1" vertex="1">
          <mxGeometry x="626" y="250" width="60" height="30" as="geometry" />
        </mxCell>
        <mxCell id="Y1CMa8lW1xbxOv6bXZh0-38" value="enter exit elevator" style="rounded=1;whiteSpace=wrap;html=1;" parent="1" vertex="1">
          <mxGeometry x="621" y="300" width="70" height="30" as="geometry" />
        </mxCell>
        <mxCell id="Y1CMa8lW1xbxOv6bXZh0-39" value="145" style="rounded=1;whiteSpace=wrap;html=1;" parent="1" vertex="1">
          <mxGeometry x="626" y="400" width="60" height="30" as="geometry" />
        </mxCell>
        <mxCell id="Y1CMa8lW1xbxOv6bXZh0-40" value="143" style="rounded=1;whiteSpace=wrap;html=1;" parent="1" vertex="1">
          <mxGeometry x="621" y="350" width="70" height="30" as="geometry" />
        </mxCell>
        <mxCell id="Y1CMa8lW1xbxOv6bXZh0-41" value="checkout&lt;div&gt;sync_id 1&lt;/div&gt;" style="rounded=1;whiteSpace=wrap;html=1;" parent="1" vertex="1">
          <mxGeometry x="626" y="450" width="60" height="30" as="geometry" />
        </mxCell>
        <mxCell id="Y1CMa8lW1xbxOv6bXZh0-47" value="" style="rounded=1;whiteSpace=wrap;html=1;" parent="1" vertex="1">
          <mxGeometry x="740" y="40" width="120" height="460" as="geometry" />
        </mxCell>
        <mxCell id="Y1CMa8lW1xbxOv6bXZh0-48" value="133" style="rounded=1;whiteSpace=wrap;html=1;" parent="1" vertex="1">
          <mxGeometry x="770" y="100" width="60" height="30" as="geometry" />
        </mxCell>
        <mxCell id="Y1CMa8lW1xbxOv6bXZh0-49" value="move end to end" style="rounded=1;whiteSpace=wrap;html=1;" parent="1" vertex="1">
          <mxGeometry x="747.5" y="50" width="105" height="30" as="geometry" />
        </mxCell>
        <mxCell id="Y1CMa8lW1xbxOv6bXZh0-50" value="131" style="rounded=1;whiteSpace=wrap;html=1;" parent="1" vertex="1">
          <mxGeometry x="770" y="200" width="60" height="30" as="geometry" />
        </mxCell>
        <mxCell id="Y1CMa8lW1xbxOv6bXZh0-51" value="130" style="rounded=1;whiteSpace=wrap;html=1;" parent="1" vertex="1">
          <mxGeometry x="765" y="150" width="70" height="30" as="geometry" />
        </mxCell>
        <mxCell id="Y1CMa8lW1xbxOv6bXZh0-52" value="140" style="rounded=1;whiteSpace=wrap;html=1;" parent="1" vertex="1">
          <mxGeometry x="765" y="250" width="70" height="30" as="geometry" />
        </mxCell>
        <mxCell id="Y1CMa8lW1xbxOv6bXZh0-53" value="142" style="rounded=1;whiteSpace=wrap;html=1;" parent="1" vertex="1">
          <mxGeometry x="770" y="350" width="60" height="30" as="geometry" />
        </mxCell>
        <mxCell id="Y1CMa8lW1xbxOv6bXZh0-54" value="132" style="rounded=1;whiteSpace=wrap;html=1;" parent="1" vertex="1">
          <mxGeometry x="765" y="300" width="70" height="30" as="geometry" />
        </mxCell>
        <mxCell id="Y1CMa8lW1xbxOv6bXZh0-55" value="143" style="rounded=1;whiteSpace=wrap;html=1;" parent="1" vertex="1">
          <mxGeometry x="770" y="400" width="60" height="30" as="geometry" />
        </mxCell>
        <mxCell id="Y1CMa8lW1xbxOv6bXZh0-56" value="106" style="rounded=1;whiteSpace=wrap;html=1;" parent="1" vertex="1">
          <mxGeometry x="770" y="450" width="60" height="30" as="geometry" />
        </mxCell>
        <mxCell id="Y1CMa8lW1xbxOv6bXZh0-57" value="" style="rounded=1;whiteSpace=wrap;html=1;" parent="1" vertex="1">
          <mxGeometry x="880" y="40" width="120" height="260" as="geometry" />
        </mxCell>
        <mxCell id="Y1CMa8lW1xbxOv6bXZh0-58" value="132" style="rounded=1;whiteSpace=wrap;html=1;" parent="1" vertex="1">
          <mxGeometry x="910" y="100" width="60" height="30" as="geometry" />
        </mxCell>
        <mxCell id="Y1CMa8lW1xbxOv6bXZh0-59" value="test backward linetrace" style="rounded=1;whiteSpace=wrap;html=1;" parent="1" vertex="1">
          <mxGeometry x="887.5" y="50" width="105" height="30" as="geometry" />
        </mxCell>
        <mxCell id="Y1CMa8lW1xbxOv6bXZh0-60" value="backward linetrace" style="rounded=1;whiteSpace=wrap;html=1;" parent="1" vertex="1">
          <mxGeometry x="910" y="200" width="60" height="30" as="geometry" />
        </mxCell>
        <mxCell id="Y1CMa8lW1xbxOv6bXZh0-61" value="146" style="rounded=1;whiteSpace=wrap;html=1;" parent="1" vertex="1">
          <mxGeometry x="905" y="150" width="70" height="30" as="geometry" />
        </mxCell>
        <mxCell id="Y1CMa8lW1xbxOv6bXZh0-62" value="147" style="rounded=1;whiteSpace=wrap;html=1;" parent="1" vertex="1">
          <mxGeometry x="905" y="250" width="70" height="30" as="geometry" />
        </mxCell>
        <mxCell id="Y1CMa8lW1xbxOv6bXZh0-67" value="" style="rounded=1;whiteSpace=wrap;html=1;" parent="1" vertex="1">
          <mxGeometry x="1020" y="40" width="120" height="510" as="geometry" />
        </mxCell>
        <mxCell id="Y1CMa8lW1xbxOv6bXZh0-68" value="ready_go" style="rounded=1;whiteSpace=wrap;html=1;" parent="1" vertex="1">
          <mxGeometry x="1050" y="100" width="60" height="30" as="geometry" />
        </mxCell>
        <mxCell id="Y1CMa8lW1xbxOv6bXZh0-69" value="lexxtug_pick_drop" style="rounded=1;whiteSpace=wrap;html=1;" parent="1" vertex="1">
          <mxGeometry x="1027.5" y="50" width="105" height="30" as="geometry" />
        </mxCell>
        <mxCell id="Y1CMa8lW1xbxOv6bXZh0-70" value="pick_up" style="rounded=1;whiteSpace=wrap;html=1;" parent="1" vertex="1">
          <mxGeometry x="1050" y="200" width="60" height="30" as="geometry" />
        </mxCell>
        <mxCell id="Y1CMa8lW1xbxOv6bXZh0-71" value="200" style="rounded=1;whiteSpace=wrap;html=1;" parent="1" vertex="1">
          <mxGeometry x="1045" y="150" width="70" height="30" as="geometry" />
        </mxCell>
        <mxCell id="Y1CMa8lW1xbxOv6bXZh0-72" value="501" style="rounded=1;whiteSpace=wrap;html=1;" parent="1" vertex="1">
          <mxGeometry x="1045" y="250" width="70" height="30" as="geometry" />
        </mxCell>
        <mxCell id="Y1CMa8lW1xbxOv6bXZh0-73" value="503" style="rounded=1;whiteSpace=wrap;html=1;" parent="1" vertex="1">
          <mxGeometry x="1045" y="300" width="70" height="30" as="geometry" />
        </mxCell>
        <mxCell id="Y1CMa8lW1xbxOv6bXZh0-74" value="drop off" style="rounded=1;whiteSpace=wrap;html=1;" parent="1" vertex="1">
          <mxGeometry x="1045" y="400" width="70" height="30" as="geometry" />
        </mxCell>
        <mxCell id="Y1CMa8lW1xbxOv6bXZh0-75" value="501" style="rounded=1;whiteSpace=wrap;html=1;" parent="1" vertex="1">
          <mxGeometry x="1042.5" y="450" width="70" height="30" as="geometry" />
        </mxCell>
        <mxCell id="Y1CMa8lW1xbxOv6bXZh0-76" value="201" style="rounded=1;whiteSpace=wrap;html=1;" parent="1" vertex="1">
          <mxGeometry x="1045" y="350" width="70" height="30" as="geometry" />
        </mxCell>
        <mxCell id="Y1CMa8lW1xbxOv6bXZh0-77" value="503" style="rounded=1;whiteSpace=wrap;html=1;" parent="1" vertex="1">
          <mxGeometry x="1042.5" y="500" width="70" height="30" as="geometry" />
        </mxCell>
        <mxCell id="Y1CMa8lW1xbxOv6bXZh0-78" value="&lt;div style=&quot;text-align: center;&quot;&gt;&lt;b&gt;MAIN MOVEMENTS in the scenarios&lt;/b&gt;&lt;/div&gt;&lt;ol&gt;&lt;li&gt;intermediate goal movement&lt;/li&gt;&lt;ol&gt;&lt;li&gt;include going and coming&lt;/li&gt;&lt;li&gt;long distance movement&lt;/li&gt;&lt;/ol&gt;&lt;li&gt;raise act, get occupancy and linetrace&lt;/li&gt;&lt;li&gt;enter exit elevator&lt;/li&gt;&lt;li&gt;detect_area and park&lt;/li&gt;&lt;li&gt;backward linetrace&lt;/li&gt;&lt;li&gt;lexxtug pick up and drop off&lt;/li&gt;&lt;/ol&gt;" style="whiteSpace=wrap;html=1;aspect=fixed;align=left;" parent="1" vertex="1">
          <mxGeometry x="26" y="283.75" width="264" height="264" as="geometry" />
        </mxCell>
        <mxCell id="Y1CMa8lW1xbxOv6bXZh0-83" value="" style="rounded=1;whiteSpace=wrap;html=1;" parent="1" vertex="1">
          <mxGeometry x="170" y="744" width="120" height="200" as="geometry" />
        </mxCell>
        <mxCell id="CmdeKac-b-EZAwpPMAO4-1" style="edgeStyle=orthogonalEdgeStyle;rounded=0;orthogonalLoop=1;jettySize=auto;html=1;exitX=0.5;exitY=1;exitDx=0;exitDy=0;entryX=0.5;entryY=0;entryDx=0;entryDy=0;" parent="1" source="Y1CMa8lW1xbxOv6bXZh0-84" target="Y1CMa8lW1xbxOv6bXZh0-86" edge="1">
          <mxGeometry relative="1" as="geometry" />
        </mxCell>
        <mxCell id="Y1CMa8lW1xbxOv6bXZh0-84" value="120" style="rounded=1;whiteSpace=wrap;html=1;fillColor=#fff2cc;strokeColor=#d6b656;" parent="1" vertex="1">
          <mxGeometry x="200" y="804" width="60" height="30" as="geometry" />
        </mxCell>
        <mxCell id="Y1CMa8lW1xbxOv6bXZh0-85" value="end_to_end" style="rounded=1;whiteSpace=wrap;html=1;fillColor=#f8cecc;strokeColor=#b85450;" parent="1" vertex="1">
          <mxGeometry x="177.5" y="754" width="105" height="30" as="geometry" />
        </mxCell>
        <mxCell id="CmdeKac-b-EZAwpPMAO4-2" style="edgeStyle=orthogonalEdgeStyle;rounded=0;orthogonalLoop=1;jettySize=auto;html=1;exitX=0.5;exitY=1;exitDx=0;exitDy=0;entryX=0.5;entryY=0;entryDx=0;entryDy=0;" parent="1" source="Y1CMa8lW1xbxOv6bXZh0-86" target="Y1CMa8lW1xbxOv6bXZh0-87" edge="1">
          <mxGeometry relative="1" as="geometry" />
        </mxCell>
        <mxCell id="Y1CMa8lW1xbxOv6bXZh0-86" value="122" style="rounded=1;whiteSpace=wrap;html=1;fillColor=#fff2cc;strokeColor=#d6b656;" parent="1" vertex="1">
          <mxGeometry x="200" y="854" width="60" height="30" as="geometry" />
        </mxCell>
        <mxCell id="Y1CMa8lW1xbxOv6bXZh0-87" value="checkout sync_id 2" style="rounded=1;whiteSpace=wrap;html=1;" parent="1" vertex="1">
          <mxGeometry x="195" y="904" width="70" height="30" as="geometry" />
        </mxCell>
        <mxCell id="Y1CMa8lW1xbxOv6bXZh0-93" value="" style="rounded=1;whiteSpace=wrap;html=1;" parent="1" vertex="1">
          <mxGeometry x="316" y="744" width="164" height="696" as="geometry" />
        </mxCell>
        <mxCell id="CmdeKac-b-EZAwpPMAO4-3" style="edgeStyle=orthogonalEdgeStyle;rounded=0;orthogonalLoop=1;jettySize=auto;html=1;exitX=0.5;exitY=1;exitDx=0;exitDy=0;entryX=0.5;entryY=0;entryDx=0;entryDy=0;" parent="1" source="Y1CMa8lW1xbxOv6bXZh0-94" target="Y1CMa8lW1xbxOv6bXZh0-97" edge="1">
          <mxGeometry relative="1" as="geometry" />
        </mxCell>
        <mxCell id="Y1CMa8lW1xbxOv6bXZh0-94" value="120" style="rounded=1;whiteSpace=wrap;html=1;fillColor=#fff2cc;strokeColor=#d6b656;" parent="1" vertex="1">
          <mxGeometry x="371.75" y="800" width="60" height="30" as="geometry" />
        </mxCell>
        <mxCell id="Y1CMa8lW1xbxOv6bXZh0-95" value="pick_drop" style="rounded=1;whiteSpace=wrap;html=1;fillColor=#f8cecc;strokeColor=#b85450;" parent="1" vertex="1">
          <mxGeometry x="349.26" y="754" width="105" height="30" as="geometry" />
        </mxCell>
        <mxCell id="CmdeKac-b-EZAwpPMAO4-5" style="edgeStyle=orthogonalEdgeStyle;rounded=0;orthogonalLoop=1;jettySize=auto;html=1;exitX=0.5;exitY=1;exitDx=0;exitDy=0;entryX=0.5;entryY=0;entryDx=0;entryDy=0;" parent="1" source="Y1CMa8lW1xbxOv6bXZh0-96" target="Y1CMa8lW1xbxOv6bXZh0-98" edge="1">
          <mxGeometry relative="1" as="geometry" />
        </mxCell>
        <mxCell id="Y1CMa8lW1xbxOv6bXZh0-96" value="114" style="rounded=1;whiteSpace=wrap;html=1;fillColor=#fff2cc;strokeColor=#d6b656;" parent="1" vertex="1">
          <mxGeometry x="371.75" y="900.25" width="60" height="30" as="geometry" />
        </mxCell>
        <mxCell id="CmdeKac-b-EZAwpPMAO4-4" style="edgeStyle=orthogonalEdgeStyle;rounded=0;orthogonalLoop=1;jettySize=auto;html=1;exitX=0.5;exitY=1;exitDx=0;exitDy=0;entryX=0.5;entryY=0;entryDx=0;entryDy=0;" parent="1" source="Y1CMa8lW1xbxOv6bXZh0-97" target="Y1CMa8lW1xbxOv6bXZh0-96" edge="1">
          <mxGeometry relative="1" as="geometry" />
        </mxCell>
        <mxCell id="Y1CMa8lW1xbxOv6bXZh0-97" value="check_pgv1_occupancy" style="rounded=1;whiteSpace=wrap;html=1;fillColor=#dae8fc;strokeColor=#6c8ebf;" parent="1" vertex="1">
          <mxGeometry x="332.25" y="850.25" width="139" height="30" as="geometry" />
        </mxCell>
        <mxCell id="CmdeKac-b-EZAwpPMAO4-6" style="edgeStyle=orthogonalEdgeStyle;rounded=0;orthogonalLoop=1;jettySize=auto;html=1;exitX=0.5;exitY=1;exitDx=0;exitDy=0;entryX=0.5;entryY=0;entryDx=0;entryDy=0;" parent="1" source="Y1CMa8lW1xbxOv6bXZh0-98" target="Y1CMa8lW1xbxOv6bXZh0-100" edge="1">
          <mxGeometry relative="1" as="geometry" />
        </mxCell>
        <mxCell id="Y1CMa8lW1xbxOv6bXZh0-98" value="act_high_sides" style="rounded=1;whiteSpace=wrap;html=1;fillColor=#dae8fc;strokeColor=#6c8ebf;" parent="1" vertex="1">
          <mxGeometry x="353.38" y="954" width="96.75" height="30" as="geometry" />
        </mxCell>
        <mxCell id="CmdeKac-b-EZAwpPMAO4-8" style="edgeStyle=orthogonalEdgeStyle;rounded=0;orthogonalLoop=1;jettySize=auto;html=1;exitX=0.5;exitY=1;exitDx=0;exitDy=0;entryX=0.5;entryY=0;entryDx=0;entryDy=0;" parent="1" source="Y1CMa8lW1xbxOv6bXZh0-99" target="Y1CMa8lW1xbxOv6bXZh0-162" edge="1">
          <mxGeometry relative="1" as="geometry" />
        </mxCell>
        <mxCell id="Y1CMa8lW1xbxOv6bXZh0-99" value="120" style="rounded=1;whiteSpace=wrap;html=1;fillColor=#fff2cc;strokeColor=#d6b656;" parent="1" vertex="1">
          <mxGeometry x="371.75" y="1054" width="60" height="30" as="geometry" />
        </mxCell>
        <mxCell id="CmdeKac-b-EZAwpPMAO4-7" style="edgeStyle=orthogonalEdgeStyle;rounded=0;orthogonalLoop=1;jettySize=auto;html=1;exitX=0.5;exitY=1;exitDx=0;exitDy=0;entryX=0.5;entryY=0;entryDx=0;entryDy=0;" parent="1" source="Y1CMa8lW1xbxOv6bXZh0-100" target="Y1CMa8lW1xbxOv6bXZh0-99" edge="1">
          <mxGeometry relative="1" as="geometry" />
        </mxCell>
        <mxCell id="Y1CMa8lW1xbxOv6bXZh0-100" value="enter_middle_line_north" style="rounded=1;whiteSpace=wrap;html=1;fillColor=#dae8fc;strokeColor=#6c8ebf;" parent="1" vertex="1">
          <mxGeometry x="330.13" y="1004" width="143.25" height="30" as="geometry" />
        </mxCell>
        <mxCell id="CmdeKac-b-EZAwpPMAO4-12" style="edgeStyle=orthogonalEdgeStyle;rounded=0;orthogonalLoop=1;jettySize=auto;html=1;exitX=0.5;exitY=1;exitDx=0;exitDy=0;entryX=0.5;entryY=0;entryDx=0;entryDy=0;" parent="1" source="Y1CMa8lW1xbxOv6bXZh0-101" target="Y1CMa8lW1xbxOv6bXZh0-157" edge="1">
          <mxGeometry relative="1" as="geometry" />
        </mxCell>
        <mxCell id="Y1CMa8lW1xbxOv6bXZh0-101" value="act_lower" style="rounded=1;whiteSpace=wrap;html=1;fillColor=#dae8fc;strokeColor=#6c8ebf;" parent="1" vertex="1">
          <mxGeometry x="354.5" y="1246.25" width="91.75" height="30" as="geometry" />
        </mxCell>
        <mxCell id="Y1CMa8lW1xbxOv6bXZh0-102" value="" style="rounded=1;whiteSpace=wrap;html=1;" parent="1" vertex="1">
          <mxGeometry x="500" y="744" width="140" height="466" as="geometry" />
        </mxCell>
        <mxCell id="CmdeKac-b-EZAwpPMAO4-17" style="edgeStyle=orthogonalEdgeStyle;rounded=0;orthogonalLoop=1;jettySize=auto;html=1;exitX=0.5;exitY=1;exitDx=0;exitDy=0;entryX=0.5;entryY=0;entryDx=0;entryDy=0;" parent="1" source="Y1CMa8lW1xbxOv6bXZh0-103" target="Y1CMa8lW1xbxOv6bXZh0-105" edge="1">
          <mxGeometry relative="1" as="geometry" />
        </mxCell>
        <mxCell id="Y1CMa8lW1xbxOv6bXZh0-103" value="120" style="rounded=1;whiteSpace=wrap;html=1;fillColor=#fff2cc;strokeColor=#d6b656;" parent="1" vertex="1">
          <mxGeometry x="543.5" y="804" width="60" height="30" as="geometry" />
        </mxCell>
        <mxCell id="Y1CMa8lW1xbxOv6bXZh0-104" value="enter_exit_elevator" style="rounded=1;whiteSpace=wrap;html=1;fillColor=#f8cecc;strokeColor=#b85450;" parent="1" vertex="1">
          <mxGeometry x="520" y="754" width="106" height="30" as="geometry" />
        </mxCell>
        <mxCell id="CmdeKac-b-EZAwpPMAO4-18" style="edgeStyle=orthogonalEdgeStyle;rounded=0;orthogonalLoop=1;jettySize=auto;html=1;exitX=0.5;exitY=1;exitDx=0;exitDy=0;entryX=0.5;entryY=0;entryDx=0;entryDy=0;" parent="1" source="Y1CMa8lW1xbxOv6bXZh0-105" target="Y1CMa8lW1xbxOv6bXZh0-165" edge="1">
          <mxGeometry relative="1" as="geometry" />
        </mxCell>
        <mxCell id="Y1CMa8lW1xbxOv6bXZh0-105" value="141" style="rounded=1;whiteSpace=wrap;html=1;fillColor=#fff2cc;strokeColor=#d6b656;" parent="1" vertex="1">
          <mxGeometry x="543.5" y="854" width="60" height="30" as="geometry" />
        </mxCell>
        <mxCell id="CmdeKac-b-EZAwpPMAO4-20" style="edgeStyle=orthogonalEdgeStyle;rounded=0;orthogonalLoop=1;jettySize=auto;html=1;exitX=0.5;exitY=1;exitDx=0;exitDy=0;entryX=0.5;entryY=0;entryDx=0;entryDy=0;" parent="1" source="21O02UXEpnsijsmawnHE-1" target="Y1CMa8lW1xbxOv6bXZh0-108" edge="1">
          <mxGeometry relative="1" as="geometry">
            <mxPoint x="571" y="984" as="sourcePoint" />
          </mxGeometry>
        </mxCell>
        <mxCell id="CmdeKac-b-EZAwpPMAO4-21" style="edgeStyle=orthogonalEdgeStyle;rounded=0;orthogonalLoop=1;jettySize=auto;html=1;exitX=0.5;exitY=1;exitDx=0;exitDy=0;entryX=0.5;entryY=0;entryDx=0;entryDy=0;" parent="1" source="Y1CMa8lW1xbxOv6bXZh0-108" target="Y1CMa8lW1xbxOv6bXZh0-163" edge="1">
          <mxGeometry relative="1" as="geometry" />
        </mxCell>
        <mxCell id="Y1CMa8lW1xbxOv6bXZh0-108" value="143" style="rounded=1;whiteSpace=wrap;html=1;fillColor=#fff2cc;strokeColor=#d6b656;" parent="1" vertex="1">
          <mxGeometry x="543" y="1004" width="60" height="30" as="geometry" />
        </mxCell>
        <mxCell id="CmdeKac-b-EZAwpPMAO4-11" style="edgeStyle=orthogonalEdgeStyle;rounded=0;orthogonalLoop=1;jettySize=auto;html=1;exitX=0.5;exitY=1;exitDx=0;exitDy=0;entryX=0.5;entryY=0;entryDx=0;entryDy=0;" parent="1" source="Y1CMa8lW1xbxOv6bXZh0-109" target="Y1CMa8lW1xbxOv6bXZh0-101" edge="1">
          <mxGeometry relative="1" as="geometry" />
        </mxCell>
        <mxCell id="Y1CMa8lW1xbxOv6bXZh0-109" value="choose 55/56" style="rounded=1;whiteSpace=wrap;html=1;" parent="1" vertex="1">
          <mxGeometry x="366.75" y="1200" width="70" height="30" as="geometry" />
        </mxCell>
        <mxCell id="CmdeKac-b-EZAwpPMAO4-23" style="edgeStyle=orthogonalEdgeStyle;rounded=0;orthogonalLoop=1;jettySize=auto;html=1;exitX=0.5;exitY=1;exitDx=0;exitDy=0;entryX=0.5;entryY=0;entryDx=0;entryDy=0;" parent="1" source="Y1CMa8lW1xbxOv6bXZh0-110" target="Y1CMa8lW1xbxOv6bXZh0-164" edge="1">
          <mxGeometry relative="1" as="geometry" />
        </mxCell>
        <mxCell id="Y1CMa8lW1xbxOv6bXZh0-110" value="checkout&lt;div&gt;sync_id 1&lt;/div&gt;" style="rounded=1;whiteSpace=wrap;html=1;" parent="1" vertex="1">
          <mxGeometry x="541" y="1107.75" width="60" height="30" as="geometry" />
        </mxCell>
        <mxCell id="Y1CMa8lW1xbxOv6bXZh0-121" value="" style="rounded=1;whiteSpace=wrap;html=1;" parent="1" vertex="1">
          <mxGeometry x="660" y="744" width="170" height="456" as="geometry" />
        </mxCell>
        <mxCell id="CmdeKac-b-EZAwpPMAO4-24" style="edgeStyle=orthogonalEdgeStyle;rounded=0;orthogonalLoop=1;jettySize=auto;html=1;exitX=0.5;exitY=1;exitDx=0;exitDy=0;entryX=0.5;entryY=0;entryDx=0;entryDy=0;" parent="1" source="Y1CMa8lW1xbxOv6bXZh0-122" target="Y1CMa8lW1xbxOv6bXZh0-125" edge="1">
          <mxGeometry relative="1" as="geometry" />
        </mxCell>
        <mxCell id="Y1CMa8lW1xbxOv6bXZh0-122" value="120" style="rounded=1;whiteSpace=wrap;html=1;fillColor=#fff2cc;strokeColor=#d6b656;" parent="1" vertex="1">
          <mxGeometry x="716" y="804" width="60" height="30" as="geometry" />
        </mxCell>
        <mxCell id="Y1CMa8lW1xbxOv6bXZh0-123" value="backward_linetrace" style="rounded=1;whiteSpace=wrap;html=1;fillColor=#f8cecc;strokeColor=#b85450;" parent="1" vertex="1">
          <mxGeometry x="680.75" y="754" width="128.5" height="30" as="geometry" />
        </mxCell>
        <mxCell id="CmdeKac-b-EZAwpPMAO4-27" style="edgeStyle=orthogonalEdgeStyle;rounded=0;orthogonalLoop=1;jettySize=auto;html=1;exitX=0.5;exitY=1;exitDx=0;exitDy=0;entryX=0.5;entryY=0;entryDx=0;entryDy=0;" parent="1" source="Y1CMa8lW1xbxOv6bXZh0-124" target="Y1CMa8lW1xbxOv6bXZh0-126" edge="1">
          <mxGeometry relative="1" as="geometry" />
        </mxCell>
        <mxCell id="Y1CMa8lW1xbxOv6bXZh0-124" value="backward_trace_118_119" style="rounded=1;whiteSpace=wrap;html=1;fillColor=#dae8fc;strokeColor=#6c8ebf;" parent="1" vertex="1">
          <mxGeometry x="673" y="954" width="146" height="30" as="geometry" />
        </mxCell>
        <mxCell id="CmdeKac-b-EZAwpPMAO4-25" style="edgeStyle=orthogonalEdgeStyle;rounded=0;orthogonalLoop=1;jettySize=auto;html=1;exitX=0.5;exitY=1;exitDx=0;exitDy=0;entryX=0.5;entryY=0;entryDx=0;entryDy=0;" parent="1" source="Y1CMa8lW1xbxOv6bXZh0-125" target="Y1CMa8lW1xbxOv6bXZh0-166" edge="1">
          <mxGeometry relative="1" as="geometry" />
        </mxCell>
        <mxCell id="Y1CMa8lW1xbxOv6bXZh0-125" value="119" style="rounded=1;whiteSpace=wrap;html=1;fillColor=#fff2cc;strokeColor=#d6b656;" parent="1" vertex="1">
          <mxGeometry x="711" y="854" width="70" height="30" as="geometry" />
        </mxCell>
        <mxCell id="CmdeKac-b-EZAwpPMAO4-28" style="edgeStyle=orthogonalEdgeStyle;rounded=0;orthogonalLoop=1;jettySize=auto;html=1;exitX=0.5;exitY=1;exitDx=0;exitDy=0;entryX=0.5;entryY=0;entryDx=0;entryDy=0;" parent="1" source="Y1CMa8lW1xbxOv6bXZh0-126" target="Y1CMa8lW1xbxOv6bXZh0-167" edge="1">
          <mxGeometry relative="1" as="geometry" />
        </mxCell>
        <mxCell id="Y1CMa8lW1xbxOv6bXZh0-126" value="143" style="rounded=1;whiteSpace=wrap;html=1;fillColor=#fff2cc;strokeColor=#d6b656;" parent="1" vertex="1">
          <mxGeometry x="711" y="1003.75" width="70" height="30" as="geometry" />
        </mxCell>
        <mxCell id="Y1CMa8lW1xbxOv6bXZh0-127" value="" style="rounded=1;whiteSpace=wrap;html=1;" parent="1" vertex="1">
          <mxGeometry x="860" y="744" width="120" height="510" as="geometry" />
        </mxCell>
        <mxCell id="CmdeKac-b-EZAwpPMAO4-32" style="edgeStyle=orthogonalEdgeStyle;rounded=0;orthogonalLoop=1;jettySize=auto;html=1;exitX=0.5;exitY=1;exitDx=0;exitDy=0;entryX=0.5;entryY=0;entryDx=0;entryDy=0;" parent="1" source="Y1CMa8lW1xbxOv6bXZh0-128" target="Y1CMa8lW1xbxOv6bXZh0-131" edge="1">
          <mxGeometry relative="1" as="geometry" />
        </mxCell>
        <mxCell id="Y1CMa8lW1xbxOv6bXZh0-128" value="lexxtug_ready_go" style="rounded=1;whiteSpace=wrap;html=1;fillColor=#dae8fc;strokeColor=#6c8ebf;" parent="1" vertex="1">
          <mxGeometry x="865" y="804" width="110" height="30" as="geometry" />
        </mxCell>
        <mxCell id="Y1CMa8lW1xbxOv6bXZh0-129" value="lexxtug_pick_drop" style="rounded=1;whiteSpace=wrap;html=1;fillColor=#f8cecc;strokeColor=#b85450;" parent="1" vertex="1">
          <mxGeometry x="867.5" y="754" width="105" height="30" as="geometry" />
        </mxCell>
        <mxCell id="CmdeKac-b-EZAwpPMAO4-34" style="edgeStyle=orthogonalEdgeStyle;rounded=0;orthogonalLoop=1;jettySize=auto;html=1;exitX=0.5;exitY=1;exitDx=0;exitDy=0;entryX=0.5;entryY=0;entryDx=0;entryDy=0;" parent="1" source="Y1CMa8lW1xbxOv6bXZh0-130" target="Y1CMa8lW1xbxOv6bXZh0-132" edge="1">
          <mxGeometry relative="1" as="geometry" />
        </mxCell>
        <mxCell id="Y1CMa8lW1xbxOv6bXZh0-130" value="lexxtug_pick_up" style="rounded=1;whiteSpace=wrap;html=1;fillColor=#dae8fc;strokeColor=#6c8ebf;" parent="1" vertex="1">
          <mxGeometry x="867.5" y="904" width="100" height="30" as="geometry" />
        </mxCell>
        <mxCell id="CmdeKac-b-EZAwpPMAO4-33" style="edgeStyle=orthogonalEdgeStyle;rounded=0;orthogonalLoop=1;jettySize=auto;html=1;exitX=0.5;exitY=1;exitDx=0;exitDy=0;entryX=0.5;entryY=0;entryDx=0;entryDy=0;" parent="1" source="Y1CMa8lW1xbxOv6bXZh0-131" target="Y1CMa8lW1xbxOv6bXZh0-130" edge="1">
          <mxGeometry relative="1" as="geometry" />
        </mxCell>
        <mxCell id="Y1CMa8lW1xbxOv6bXZh0-131" value="116" style="rounded=1;whiteSpace=wrap;html=1;fillColor=#fff2cc;strokeColor=#d6b656;" parent="1" vertex="1">
          <mxGeometry x="885" y="854" width="70" height="30" as="geometry" />
        </mxCell>
        <mxCell id="CmdeKac-b-EZAwpPMAO4-35" style="edgeStyle=orthogonalEdgeStyle;rounded=0;orthogonalLoop=1;jettySize=auto;html=1;exitX=0.5;exitY=1;exitDx=0;exitDy=0;entryX=0.5;entryY=0;entryDx=0;entryDy=0;" parent="1" source="Y1CMa8lW1xbxOv6bXZh0-132" target="Y1CMa8lW1xbxOv6bXZh0-133" edge="1">
          <mxGeometry relative="1" as="geometry" />
        </mxCell>
        <mxCell id="Y1CMa8lW1xbxOv6bXZh0-132" value="501" style="rounded=1;whiteSpace=wrap;html=1;fillColor=#fff2cc;strokeColor=#d6b656;" parent="1" vertex="1">
          <mxGeometry x="885" y="954" width="70" height="30" as="geometry" />
        </mxCell>
        <mxCell id="CmdeKac-b-EZAwpPMAO4-36" style="edgeStyle=orthogonalEdgeStyle;rounded=0;orthogonalLoop=1;jettySize=auto;html=1;exitX=0.5;exitY=1;exitDx=0;exitDy=0;entryX=0.5;entryY=0;entryDx=0;entryDy=0;" parent="1" source="Y1CMa8lW1xbxOv6bXZh0-133" target="Y1CMa8lW1xbxOv6bXZh0-136" edge="1">
          <mxGeometry relative="1" as="geometry" />
        </mxCell>
        <mxCell id="Y1CMa8lW1xbxOv6bXZh0-133" value="502" style="rounded=1;whiteSpace=wrap;html=1;fillColor=#fff2cc;strokeColor=#d6b656;" parent="1" vertex="1">
          <mxGeometry x="885" y="1004" width="70" height="30" as="geometry" />
        </mxCell>
        <mxCell id="CmdeKac-b-EZAwpPMAO4-38" style="edgeStyle=orthogonalEdgeStyle;rounded=0;orthogonalLoop=1;jettySize=auto;html=1;exitX=0.5;exitY=1;exitDx=0;exitDy=0;entryX=0.5;entryY=0;entryDx=0;entryDy=0;" parent="1" source="Y1CMa8lW1xbxOv6bXZh0-134" target="Y1CMa8lW1xbxOv6bXZh0-135" edge="1">
          <mxGeometry relative="1" as="geometry" />
        </mxCell>
        <mxCell id="Y1CMa8lW1xbxOv6bXZh0-134" value="lexxtug_drop_off" style="rounded=1;whiteSpace=wrap;html=1;fillColor=#dae8fc;strokeColor=#6c8ebf;" parent="1" vertex="1">
          <mxGeometry x="867.5" y="1104" width="105" height="30" as="geometry" />
        </mxCell>
        <mxCell id="CmdeKac-b-EZAwpPMAO4-39" style="edgeStyle=orthogonalEdgeStyle;rounded=0;orthogonalLoop=1;jettySize=auto;html=1;exitX=0.5;exitY=1;exitDx=0;exitDy=0;entryX=0.5;entryY=0;entryDx=0;entryDy=0;" parent="1" source="Y1CMa8lW1xbxOv6bXZh0-135" target="Y1CMa8lW1xbxOv6bXZh0-137" edge="1">
          <mxGeometry relative="1" as="geometry" />
        </mxCell>
        <mxCell id="Y1CMa8lW1xbxOv6bXZh0-135" value="501" style="rounded=1;whiteSpace=wrap;html=1;fillColor=#fff2cc;strokeColor=#d6b656;" parent="1" vertex="1">
          <mxGeometry x="882.5" y="1154" width="70" height="30" as="geometry" />
        </mxCell>
        <mxCell id="CmdeKac-b-EZAwpPMAO4-37" style="edgeStyle=orthogonalEdgeStyle;rounded=0;orthogonalLoop=1;jettySize=auto;html=1;exitX=0.5;exitY=1;exitDx=0;exitDy=0;entryX=0.5;entryY=0;entryDx=0;entryDy=0;" parent="1" source="Y1CMa8lW1xbxOv6bXZh0-136" target="Y1CMa8lW1xbxOv6bXZh0-134" edge="1">
          <mxGeometry relative="1" as="geometry" />
        </mxCell>
        <mxCell id="Y1CMa8lW1xbxOv6bXZh0-136" value="117" style="rounded=1;whiteSpace=wrap;html=1;fillColor=#fff2cc;strokeColor=#d6b656;" parent="1" vertex="1">
          <mxGeometry x="885" y="1054" width="70" height="30" as="geometry" />
        </mxCell>
        <mxCell id="Y1CMa8lW1xbxOv6bXZh0-137" value="502" style="rounded=1;whiteSpace=wrap;html=1;fillColor=#fff2cc;strokeColor=#d6b656;" parent="1" vertex="1">
          <mxGeometry x="882.5" y="1204" width="70" height="30" as="geometry" />
        </mxCell>
        <mxCell id="Y1CMa8lW1xbxOv6bXZh0-138" value="&lt;div style=&quot;text-align: center;&quot;&gt;&lt;b&gt;MAIN MOVEMENTS in the scenarios&lt;/b&gt;&lt;/div&gt;&lt;ol&gt;&lt;li&gt;&lt;b&gt;end_to_end&lt;/b&gt;: intermediate goal movement&lt;/li&gt;&lt;ol&gt;&lt;li&gt;include going and coming&lt;/li&gt;&lt;li&gt;long distance movement&lt;/li&gt;&lt;/ol&gt;&lt;li&gt;&lt;b&gt;pick_drop&lt;/b&gt;: raise act, get occupancy and linetrace&lt;/li&gt;&lt;li&gt;&lt;b&gt;enter_exit_elevator&lt;/b&gt;: enter exit elevator&lt;/li&gt;&lt;li&gt;&lt;b&gt;pick_drop&lt;/b&gt;: detect_area and park&lt;/li&gt;&lt;li&gt;&lt;b&gt;backward_linetrace&lt;/b&gt;: backward linetrace&lt;/li&gt;&lt;li&gt;&lt;b&gt;lexxtug_pick_drop&lt;/b&gt;: lexxtug pick up and drop off&lt;/li&gt;&lt;/ol&gt;" style="whiteSpace=wrap;html=1;aspect=fixed;align=left;" parent="1" vertex="1">
          <mxGeometry x="26" y="987.75" width="284" height="284" as="geometry" />
        </mxCell>
        <mxCell id="Y1CMa8lW1xbxOv6bXZh0-139" value="&lt;b&gt;&lt;i&gt;&lt;font style=&quot;font-size: 30px;&quot;&gt;EXISTING&lt;/font&gt;&lt;/i&gt;&lt;/b&gt;" style="rounded=1;whiteSpace=wrap;html=1;" parent="1" vertex="1">
          <mxGeometry x="26" y="-50" width="264" height="60" as="geometry" />
        </mxCell>
        <mxCell id="Y1CMa8lW1xbxOv6bXZh0-141" value="&lt;b&gt;&lt;i&gt;&lt;font style=&quot;font-size: 30px;&quot;&gt;PROPOSAL&lt;/font&gt;&lt;/i&gt;&lt;/b&gt;" style="rounded=1;whiteSpace=wrap;html=1;" parent="1" vertex="1">
          <mxGeometry x="26" y="654" width="264" height="60" as="geometry" />
        </mxCell>
        <mxCell id="Y1CMa8lW1xbxOv6bXZh0-144" value="" style="rounded=1;whiteSpace=wrap;html=1;" parent="1" vertex="1">
          <mxGeometry x="308.5" y="283.75" width="120" height="156.25" as="geometry" />
        </mxCell>
        <mxCell id="Y1CMa8lW1xbxOv6bXZh0-145" value="waiting areas" style="rounded=1;whiteSpace=wrap;html=1;" parent="1" vertex="1">
          <mxGeometry x="316" y="293.75" width="105" height="30" as="geometry" />
        </mxCell>
        <mxCell id="Y1CMa8lW1xbxOv6bXZh0-146" value="101&lt;div&gt;102&lt;/div&gt;&lt;div&gt;103&lt;/div&gt;&lt;div&gt;104&lt;/div&gt;&lt;div&gt;105&lt;/div&gt;" style="rounded=1;whiteSpace=wrap;html=1;" parent="1" vertex="1">
          <mxGeometry x="338.5" y="337.5" width="60" height="90" as="geometry" />
        </mxCell>
        <mxCell id="Y1CMa8lW1xbxOv6bXZh0-150" value="" style="rounded=1;whiteSpace=wrap;html=1;" parent="1" vertex="1">
          <mxGeometry x="26" y="744" width="120" height="156.25" as="geometry" />
        </mxCell>
        <mxCell id="Y1CMa8lW1xbxOv6bXZh0-151" value="101 - only lexxtug&lt;div&gt;102&lt;/div&gt;&lt;div&gt;103&lt;/div&gt;&lt;div&gt;104&lt;/div&gt;&lt;div&gt;105&lt;/div&gt;" style="rounded=1;whiteSpace=wrap;html=1;" parent="1" vertex="1">
          <mxGeometry x="36" y="800.25" width="100" height="90" as="geometry" />
        </mxCell>
        <mxCell id="Y1CMa8lW1xbxOv6bXZh0-152" value="waiting areas" style="rounded=1;whiteSpace=wrap;html=1;fillColor=#f8cecc;strokeColor=#b85450;" parent="1" vertex="1">
          <mxGeometry x="33.5" y="754" width="105" height="30" as="geometry" />
        </mxCell>
        <mxCell id="CmdeKac-b-EZAwpPMAO4-10" style="edgeStyle=orthogonalEdgeStyle;rounded=0;orthogonalLoop=1;jettySize=auto;html=1;exitX=0.5;exitY=1;exitDx=0;exitDy=0;entryX=0.5;entryY=0;entryDx=0;entryDy=0;" parent="1" source="Y1CMa8lW1xbxOv6bXZh0-153" target="Y1CMa8lW1xbxOv6bXZh0-109" edge="1">
          <mxGeometry relative="1" as="geometry" />
        </mxCell>
        <mxCell id="Y1CMa8lW1xbxOv6bXZh0-153" value="get detect_area of movable5/6" style="rounded=1;whiteSpace=wrap;html=1;" parent="1" vertex="1">
          <mxGeometry x="357.25" y="1150" width="89" height="30" as="geometry" />
        </mxCell>
        <mxCell id="Y1CMa8lW1xbxOv6bXZh0-154" value="choose 55/56" style="rounded=1;whiteSpace=wrap;html=1;" parent="1" vertex="1">
          <mxGeometry x="621" y="200" width="70" height="30" as="geometry" />
        </mxCell>
        <mxCell id="Y1CMa8lW1xbxOv6bXZh0-155" value="get detect area of movable5/6" style="rounded=1;whiteSpace=wrap;html=1;" parent="1" vertex="1">
          <mxGeometry x="611.5" y="150" width="89" height="30" as="geometry" />
        </mxCell>
        <mxCell id="CmdeKac-b-EZAwpPMAO4-13" style="edgeStyle=orthogonalEdgeStyle;rounded=0;orthogonalLoop=1;jettySize=auto;html=1;exitX=0.5;exitY=1;exitDx=0;exitDy=0;entryX=0.5;entryY=0;entryDx=0;entryDy=0;" parent="1" source="Y1CMa8lW1xbxOv6bXZh0-157" target="Y1CMa8lW1xbxOv6bXZh0-158" edge="1">
          <mxGeometry relative="1" as="geometry" />
        </mxCell>
        <mxCell id="Y1CMa8lW1xbxOv6bXZh0-157" value="121" style="rounded=1;whiteSpace=wrap;html=1;fillColor=#fff2cc;strokeColor=#d6b656;" parent="1" vertex="1">
          <mxGeometry x="371.75" y="1294" width="60" height="30" as="geometry" />
        </mxCell>
        <mxCell id="CmdeKac-b-EZAwpPMAO4-14" style="edgeStyle=orthogonalEdgeStyle;rounded=0;orthogonalLoop=1;jettySize=auto;html=1;exitX=0.5;exitY=1;exitDx=0;exitDy=0;entryX=0.5;entryY=0;entryDx=0;entryDy=0;" parent="1" source="Y1CMa8lW1xbxOv6bXZh0-158" target="Y1CMa8lW1xbxOv6bXZh0-159" edge="1">
          <mxGeometry relative="1" as="geometry" />
        </mxCell>
        <mxCell id="Y1CMa8lW1xbxOv6bXZh0-158" value="122" style="rounded=1;whiteSpace=wrap;html=1;fillColor=#fff2cc;strokeColor=#d6b656;" parent="1" vertex="1">
          <mxGeometry x="371.75" y="1340" width="60" height="30" as="geometry" />
        </mxCell>
        <mxCell id="Y1CMa8lW1xbxOv6bXZh0-159" value="checkout sync_id 2" style="rounded=1;whiteSpace=wrap;html=1;" parent="1" vertex="1">
          <mxGeometry x="366.75" y="1392.25" width="70" height="30" as="geometry" />
        </mxCell>
        <mxCell id="CmdeKac-b-EZAwpPMAO4-9" style="edgeStyle=orthogonalEdgeStyle;rounded=0;orthogonalLoop=1;jettySize=auto;html=1;exitX=0.5;exitY=1;exitDx=0;exitDy=0;entryX=0.5;entryY=0;entryDx=0;entryDy=0;" parent="1" source="Y1CMa8lW1xbxOv6bXZh0-162" target="Y1CMa8lW1xbxOv6bXZh0-153" edge="1">
          <mxGeometry relative="1" as="geometry" />
        </mxCell>
        <mxCell id="Y1CMa8lW1xbxOv6bXZh0-162" value="121" style="rounded=1;whiteSpace=wrap;html=1;fillColor=#fff2cc;strokeColor=#d6b656;" parent="1" vertex="1">
          <mxGeometry x="371.75" y="1100" width="60" height="30" as="geometry" />
        </mxCell>
        <mxCell id="CmdeKac-b-EZAwpPMAO4-22" style="edgeStyle=orthogonalEdgeStyle;rounded=0;orthogonalLoop=1;jettySize=auto;html=1;exitX=0.5;exitY=1;exitDx=0;exitDy=0;entryX=0.5;entryY=0;entryDx=0;entryDy=0;" parent="1" source="Y1CMa8lW1xbxOv6bXZh0-163" target="Y1CMa8lW1xbxOv6bXZh0-110" edge="1">
          <mxGeometry relative="1" as="geometry" />
        </mxCell>
        <mxCell id="Y1CMa8lW1xbxOv6bXZh0-163" value="122" style="rounded=1;whiteSpace=wrap;html=1;fillColor=#fff2cc;strokeColor=#d6b656;" parent="1" vertex="1">
          <mxGeometry x="541" y="1057.75" width="60" height="30" as="geometry" />
        </mxCell>
        <mxCell id="Y1CMa8lW1xbxOv6bXZh0-164" value="checkout&lt;div&gt;sync_id 2&lt;/div&gt;" style="rounded=1;whiteSpace=wrap;html=1;" parent="1" vertex="1">
          <mxGeometry x="541" y="1153.75" width="60" height="30" as="geometry" />
        </mxCell>
        <mxCell id="CmdeKac-b-EZAwpPMAO4-19" style="edgeStyle=orthogonalEdgeStyle;rounded=0;orthogonalLoop=1;jettySize=auto;html=1;exitX=0.5;exitY=1;exitDx=0;exitDy=0;entryX=0.5;entryY=0;entryDx=0;entryDy=0;" parent="1" source="Y1CMa8lW1xbxOv6bXZh0-165" target="21O02UXEpnsijsmawnHE-1" edge="1">
          <mxGeometry relative="1" as="geometry">
            <mxPoint x="571" y="954" as="targetPoint" />
          </mxGeometry>
        </mxCell>
        <mxCell id="Y1CMa8lW1xbxOv6bXZh0-165" value="checkout sync_id 2" style="rounded=1;whiteSpace=wrap;html=1;" parent="1" vertex="1">
          <mxGeometry x="538.5" y="904" width="70" height="30" as="geometry" />
        </mxCell>
        <mxCell id="CmdeKac-b-EZAwpPMAO4-26" style="edgeStyle=orthogonalEdgeStyle;rounded=0;orthogonalLoop=1;jettySize=auto;html=1;exitX=0.5;exitY=1;exitDx=0;exitDy=0;entryX=0.5;entryY=0;entryDx=0;entryDy=0;" parent="1" source="Y1CMa8lW1xbxOv6bXZh0-166" target="Y1CMa8lW1xbxOv6bXZh0-124" edge="1">
          <mxGeometry relative="1" as="geometry" />
        </mxCell>
        <mxCell id="Y1CMa8lW1xbxOv6bXZh0-166" value="checkout sync_id 2" style="rounded=1;whiteSpace=wrap;html=1;" parent="1" vertex="1">
          <mxGeometry x="711" y="904" width="70" height="30" as="geometry" />
        </mxCell>
        <mxCell id="CmdeKac-b-EZAwpPMAO4-29" style="edgeStyle=orthogonalEdgeStyle;rounded=0;orthogonalLoop=1;jettySize=auto;html=1;exitX=0.5;exitY=1;exitDx=0;exitDy=0;entryX=0.5;entryY=0;entryDx=0;entryDy=0;" parent="1" source="Y1CMa8lW1xbxOv6bXZh0-167" target="Y1CMa8lW1xbxOv6bXZh0-168" edge="1">
          <mxGeometry relative="1" as="geometry" />
        </mxCell>
        <mxCell id="Y1CMa8lW1xbxOv6bXZh0-167" value="122" style="rounded=1;whiteSpace=wrap;html=1;fillColor=#fff2cc;strokeColor=#d6b656;" parent="1" vertex="1">
          <mxGeometry x="715" y="1054" width="60" height="30" as="geometry" />
        </mxCell>
        <mxCell id="CmdeKac-b-EZAwpPMAO4-30" style="edgeStyle=orthogonalEdgeStyle;rounded=0;orthogonalLoop=1;jettySize=auto;html=1;exitX=0.5;exitY=1;exitDx=0;exitDy=0;entryX=0.5;entryY=0;entryDx=0;entryDy=0;" parent="1" source="Y1CMa8lW1xbxOv6bXZh0-168" target="Y1CMa8lW1xbxOv6bXZh0-169" edge="1">
          <mxGeometry relative="1" as="geometry" />
        </mxCell>
        <mxCell id="Y1CMa8lW1xbxOv6bXZh0-168" value="checkout&lt;div&gt;sync_id 1&lt;/div&gt;" style="rounded=1;whiteSpace=wrap;html=1;" parent="1" vertex="1">
          <mxGeometry x="715" y="1104" width="60" height="30" as="geometry" />
        </mxCell>
        <mxCell id="Y1CMa8lW1xbxOv6bXZh0-169" value="checkout&lt;div&gt;sync_id 2&lt;/div&gt;" style="rounded=1;whiteSpace=wrap;html=1;" parent="1" vertex="1">
          <mxGeometry x="715" y="1150" width="60" height="30" as="geometry" />
        </mxCell>
        <mxCell id="jpq0Ce90LJxbyzYAJTPC-1" value="AMR goal" style="rounded=1;whiteSpace=wrap;html=1;fillColor=#fff2cc;strokeColor=#d6b656;" parent="1" vertex="1">
          <mxGeometry x="510" y="1271.75" width="90" height="30" as="geometry" />
        </mxCell>
        <mxCell id="jpq0Ce90LJxbyzYAJTPC-2" value="AGV scene" style="rounded=1;whiteSpace=wrap;html=1;fillColor=#dae8fc;strokeColor=#6c8ebf;" parent="1" vertex="1">
          <mxGeometry x="510" y="1310" width="90" height="30" as="geometry" />
        </mxCell>
        <mxCell id="jpq0Ce90LJxbyzYAJTPC-3" value="scenario" style="rounded=1;whiteSpace=wrap;html=1;fillColor=#f8cecc;strokeColor=#b85450;" parent="1" vertex="1">
          <mxGeometry x="510" y="1350" width="90" height="30" as="geometry" />
        </mxCell>
        <mxCell id="21O02UXEpnsijsmawnHE-1" value="enter_exit_elevator" style="rounded=1;whiteSpace=wrap;html=1;fillColor=#dae8fc;strokeColor=#6c8ebf;" vertex="1" parent="1">
          <mxGeometry x="513.5" y="954" width="119" height="30" as="geometry" />
        </mxCell>
      </root>
    </mxGraphModel>
  </diagram>
</mxfile>
